<?xml version="1.0" encoding="UTF-8" standalone="no"?>
<!-- Created with Inkscape (http://www.inkscape.org/) -->

<svg
   xmlns:dc="http://purl.org/dc/elements/1.1/"
   xmlns:cc="http://creativecommons.org/ns#"
   xmlns:rdf="http://www.w3.org/1999/02/22-rdf-syntax-ns#"
   xmlns:svg="http://www.w3.org/2000/svg"
   xmlns="http://www.w3.org/2000/svg"
   xmlns:sodipodi="http://sodipodi.sourceforge.net/DTD/sodipodi-0.dtd"
   xmlns:inkscape="http://www.inkscape.org/namespaces/inkscape"
   width="128"
   height="128"
   viewBox="0 0 33.866666 33.866668"
   version="1.1"
   id="svg8"
   inkscape:version="0.92.2 5c3e80d, 2017-08-06"
   sodipodi:docname="icon.svg"
   inkscape:export-filename="/Users/jh3y/Documents/Workspace/focussed-twitter/src/chrome/icons/focussed_twitter_16.png"
   inkscape:export-xdpi="12"
   inkscape:export-ydpi="12">
  <defs
     id="defs2" />
  <sodipodi:namedview
     id="base"
     pagecolor="#ffffff"
     bordercolor="#666666"
     borderopacity="1.0"
     inkscape:pageopacity="0.0"
     inkscape:pageshadow="2"
     inkscape:zoom="7.5555692"
     inkscape:cx="61.552271"
     inkscape:cy="42.823556"
     inkscape:document-units="mm"
     inkscape:current-layer="layer1"
     showgrid="true"
     units="px"
     inkscape:window-width="1920"
     inkscape:window-height="1058"
     inkscape:window-x="0"
     inkscape:window-y="0"
     inkscape:window-maximized="1">
    <inkscape:grid
       type="xygrid"
       id="grid3699" />
  </sodipodi:namedview>
  <metadata
     id="metadata5">
    <rdf:RDF>
      <cc:Work
         rdf:about="">
        <dc:format>image/svg+xml</dc:format>
        <dc:type
           rdf:resource="http://purl.org/dc/dcmitype/StillImage" />
        <dc:title></dc:title>
      </cc:Work>
    </rdf:RDF>
  </metadata>
  <g
     inkscape:label="Layer 1"
     inkscape:groupmode="layer"
     id="layer1"
     transform="translate(0,-263.13332)">
    <path
       style="fill:#7cfcfc;fill-opacity:0.94117647;stroke-width:0.27272657"
       d="m 10.195869,276.96466 c -0.06793,0.87599 0.298614,1.93985 0.835012,2.98947 -4.163772,0.52913 -7.3001908,3.87257 -7.3041583,7.85277 0,0.16975 0.00756,0.33752 0.018681,0.50462 0.00264,0.0358 0.00553,0.0717 0.00883,0.10743 0.019585,0.24103 0.050301,0.47928 0.092292,0.7138 0.00301,0.0169 0.00624,0.0337 0.00937,0.0506 0.046714,0.25091 0.1057256,0.49792 0.1768906,0.74013 l 0.00435,0.0129 c 0.074818,0.25297 0.161941,0.50059 0.26204,0.74271 l 0.00217,0.005 c 0.100168,0.24179 0.2128027,0.47749 0.3367516,0.70708 0.00504,0.009 0.010259,0.0189 0.015385,0.0284 0.1217284,0.22323 0.2542649,0.44043 0.3971799,0.65078 0.00968,0.0143 0.019357,0.0286 0.029112,0.0429 0.031738,0.0461 0.06564,0.0905 0.098335,0.13584 -0.6478124,0.68211 -2.9223873,1.58329 -3.8551931,2.10506 0,1.32292 2.6181734,0.87349 6.7931175,0.4082 1.2025099,0.62028 4.2800868,0.96728 6.3603738,0.54233 4.152957,-0.84833 8.399874,-2.71515 11.074898,-5.93866 3.41748,-4.1182 7.493951,-8.69046 4.848118,-15.30505 -5.291667,3.96875 -2.645834,2.64584 -9.260417,3.96875 -1.406336,-2.64445 6.988042,-10.55114 7.9375,-13.22916 -9.260417,-1.32292 -17.864101,5.83639 -18.880638,12.1641 z m -2.5756714,8.21377 c 1.1422044,0 2.4646704,1.23836 2.4646694,2.38056 -10e-7,1.1422 -1.3224674,2.38055 -2.4646694,2.38055 -1.1422021,0 -2.4646684,-1.23835 -2.4646696,-2.38055 -1.2e-6,-1.1422 1.3224652,-2.38056 2.4646696,-2.38056 z"
       id="circle3705"
       inkscape:connector-curvature="0"
       sodipodi:nodetypes="ccccccccccccccccccaaccccaaaaa" />
  </g>
</svg>
